# AST/ASF file generated using VICON BodyLanguage
# -----------------------------------------------
:version 1.10
:name VICON
:units
  mass 1.0
  length 0.45
  angle deg
:documentation
   .ast/.asf automatically generated from VICON data using
   VICON BodyBuilder and BodyLanguage model FoxedUp or BRILLIANT.MOD
:root
   order TX TY TZ RX RY RZ
   axis XYZ
   position 0 0 0  
   orientation 0 0 0 
:bonedata
  begin
     id 1 
     name lhipjoint
     direction 0.756833 -0.6125 0.228138 
     length 2.53827 
     axis 0 0 0  XYZ
  end
  begin
     id 2 
     name lfemur
     direction 0.34202 -0.939693 0  
     length 6.51821  
     axis 0 0 20  XYZ
    dof rx ry rz
    limits (-160.0 20.0)
           (-70.0 70.0)
           (-60.0 70.0)
  end
  begin
     id 3 
     name ltibia
     direction 0.34202 -0.939693 0   
     length 6.99902   
     axis 0 0 20   XYZ
    dof rx
    limits (-10.0 170.0)
  end
  begin
     id 4 
     name lfoot
     direction 0.0951515 -0.261427 0.960522   
     length 1.92102   
     axis -90 7.62852e-016 20   XYZ
    dof rx rz
    limits (-45.0 90.0)
           (-70.0 20.0)
  end
  begin
     id 5 
     name ltoes
     direction 1.53539e-011 -4.21781e-011 1   
     length 0.964376   
     axis -90 7.62852e-016 20   XYZ
    dof rx
    limits (-90.0 20.0)
  end
  begin
     id 6 
     name rhipjoint
     direction -0.752153 -0.617542 0.230017   
     length 2.51754  
     axis 0 0 0  XYZ 
  end
  begin
     id 7 
     name rfemur
     direction -0.34202 -0.939693 0   
     length 6.82377   
     axis 0 0 -20   XYZ
    dof rx ry rz
    limits (-160.0 20.0)
           (-70.0 70.0)
           (-70.0 60.0)
  end
  begin
     id 8 
     name rtibia
     direction -0.34202 -0.939693 0   
     length 6.98689   
     axis 0 0 -20   XYZ
    dof rx
    limits (-10.0 170.0)
 end
 begin
     id 9 
     name rfoot
     direction -0.0900426 -0.24739 0.964723   
     length 2.03215  
     axis -90 -7.62852e-016 -20   XYZ
    dof rx rz
    limits (-45.0 90.0)
           (-20.0 70.0)
  end
  begin
     id 10 
     name rtoes
     direction -1.53466e-011 -4.22206e-011 1   
     length 1.0197   
     axis -90 -7.62852e-016 -20   XYZ
    dof rx
    limits (-90.0 20.0)
  end
  begin
     id 11 
     name lowerback
     direction 0.0184183 0.995705 -0.0907278   
     length 2.019   
     axis 0 0 0   XYZ
    dof rx ry rz
    limits (-20.0 45.0)
           (-30.0 30.0)
           (-30.0 30.0)
  end
  begin
     id 12 
     name upperback
     direction 0.00281055 0.998777 0.0493607   
     length 1.99623   
     axis 0 0 0   XYZ
    dof rx ry rz
    limits (-20.0 45.0)
           (-30.0 30.0)
           (-30.0 30.0)
  end
  begin
     id 13 
     name thorax
     direction -0.00665507 0.995706 0.092331   
     length 2.02811   
     axis 0 0 0   XYZ
    dof rx ry rz
    limits (-20.0 45.0)
           (-30.0 30.0)
           (-30.0 30.0)
  end
  begin
     id 14 
     name lowerneck
     direction -0.0960965 0.994358 0.0449225   
     length 1.71265   
     axis 0 0 0   XYZ
    dof rx ry rz
    limits (-20.0 45.0)
           (-30.0 30.0)
           (-30.0 30.0)
  end
  begin
     id 15 
     name upperneck
     direction 0.13642 0.985357 -0.102278   
     length 1.73016   
     axis 0 0 0   XYZ
    dof rx ry rz
    limits (-20.0 45.0)
           (-30.0 30.0)
           (-30.0 30.0)
  end
  begin
     id 16
     name head
     direction 0.0556079 0.997632 -0.040479  
     length 1.74275  
     axis 0 0 0   XYZ
    dof rx ry rz
    limits (-20.0 45.0)
           (-30.0 30.0)
           (-30.0 30.0)
  end
  begin
     id 17 
     name lclavicle
     direction 0.90877 0.417247 -0.00652364  
     length 3.25514  
     axis 0 0 0   XYZ
    dof ry rz
    limits (-20.0 10.0)
           (0.0 20.0)
  end
  begin
     id 18 
     name lhumerus
     direction 1 -4.48949e-011 8.31417e-028   
     length 4.84834   
     axis 180 -30 -90   XYZ
    dof rx ry rz
    limits (-60.0 90.0)
           (-90.0 90.0)
           (-90.0 90.0)
  end
  begin
     id 19
     name lradius
     direction 1 -4.48984e-011 3.45616e-027   
     length 2.99713   
     axis 180 -30 -90   XYZ
    dof rx
    limits (-10.0 170.0)
  end
  begin
     id 20
     name lwrist
     direction 1 -4.4891e-011 4.0479e-027   
     length 1.49857   
     axis -1.61768e-015 90 90   XYZ
    dof ry
    limits (-180.0 0.0)
 end
  begin
     id 21 
     name lhand
     direction 1 -4.49025e-011 8.0958e-027   
     length 0.693987   
     axis -5.16581e-015 90 90   XYZ
    dof rx rz
    limits (-90.0 90.0)
           (-45.0 45.0)
  end
  begin
     id 22 
     name lfingers
     direction 1 -4.4888e-011 1.61916e-026   
     length 0.55951   
     axis -1.03316e-014 90 90   XYZ
    dof rx
    limits (0.0 90.0)
  end
  begin
     id 23
     name lthumb
     direction 0.707107 -6.3493e-011 0.707107   
     length 0.803348   
     axis -90 45 2.85299e-015   XYZ
    dof rx rz
    limits (-45.0 45.0)
           (-45.0 45.0)
  end
  begin
     id 24 
     name rclavicle
     direction -0.906655 0.41906 0.0486307   
     length 3.3311  
     axis 0 0 0   XYZ 
    dof ry rz
    limits (-10.0 20.0)
           (-20.0 0.0)
  end
  begin
     id 25 
     name rhumerus
     direction -1 -4.48959e-011 6.37764e-018  
     length 4.93457   
     axis 180 30 90   XYZ
    dof rx ry rz
    limits (-90.0 60.0)
           (-90.0 90.0)
           (-90.0 90.0)
  end
  begin
     id 26 
     name rradius
     direction -1 -4.48957e-011 2.20847e-027   
     length 3.3443   
     axis 180 30 90   XYZ
    dof rx
    limits (-10.0 170.0)
  end
  begin
     id 27 
     name rwrist
     direction -1 -4.49008e-011 4.0479e-027   
     length 1.67215   
     axis -1.61768e-015 -90 -90   XYZ
    dof ry
    limits (-180.0 0.0)
  end
  begin
     id 28
     name rhand
     direction -1 -4.49013e-011 8.0958e-027   
     length 0.677363   
     axis -5.16581e-015 -90 -90   XYZ
    dof rx rz
    limits (-90.0 90.0)
           (-45.0 45.0)
  end
  begin
     id 29
     name rfingers
     direction -1 -4.48832e-011 1.61916e-026   
     length 0.546107   
     axis -1.03316e-014 -90 -90   XYZ
    dof rx
    limits (0.0 90.0)
  end
  begin
     id 30
     name rthumb
     direction -0.707107 -6.34895e-011 0.707107   
     length 0.784104   
     axis -90 -45 -2.85299e-015   XYZ
    dof rx rz
    limits (-45.0 45.0)
           (-45.0 45.0)
  end
:hierarchy
  begin
    root lhipjoint rhipjoint lowerback
    lhipjoint lfemur
    lfemur ltibia
    ltibia lfoot
    lfoot ltoes
    rhipjoint rfemur
    rfemur rtibia
    rtibia rfoot
    rfoot rtoes
    lowerback upperback
    upperback thorax
    thorax lowerneck lclavicle rclavicle
    lowerneck upperneck
    upperneck head
    lclavicle lhumerus
    lhumerus lradius
    lradius lwrist
    lwrist lhand lthumb
    lhand lfingers
    rclavicle rhumerus
    rhumerus rradius
    rradius rwrist
    rwrist rhand rthumb
    rhand rfingers
  end

#!OML:ASF H:\Terrain\Patient Classification 1\junglegym\FridayTest\junglegym.ASF
:FULLY-SPECIFIED
:DEGREES
709
root -20.4898 19.3112 0.0966107 79.9691 -82.7673 -137.955
lowerback 11.4253 -0.470178 5.44257
upperback -1.79463 0.293537 2.16692
thorax -8.34018 -0.0762454 -0.811742
lowerneck 13.0305 0.606409 -17.5368
upperneck 31.0723 -5.64074 11.1848
head 8.39229 -5.12734 6.68628
rclavicle -1.86858e-014 8.74653e-014
rhumerus 91.0824 -26.1647 -48.5144
rradius 32.3969
rwrist -5.84254
rhand -5.63192 23.4346
rfingers 7.12502
rthumb 20.1862 -5.53662
lclavicle -1.86858e-014 8.74653e-014
lhumerus 101.88 20.5814 53.7671
lradius 25.6242
lwrist -24.2089
lhand 8.05618 23.0116
lfingers 7.12502
lthumb 33.2804 49.9522
rfemur -25.8404 5.98099 28.0749
rtibia 41.3682
rfoot -6.48732 -22.1319
rtoes 18.202
lfemur -28.87 -3.27039 -16.8315
ltibia 39.2324
lfoot 4.23751 16.4185
ltoes -43.7483
710
root -20.37 19.2033 0.105523 79.3334 -83.7649 -136.964
lowerback 11.6345 -0.503391 4.32229
upperback -1.85361 0.0992908 2.03175
thorax -8.53053 -0.121155 -0.28934
lowerneck 13.0991 0.618566 -17.463
upperneck 30.517 -5.40655 10.6867
head 8.13994 -4.98872 6.48229
rclavicle -6.65929e-015 7.1811e-015
rhumerus 91.4744 -25.4732 -48.9984
rradius 32.202
rwrist -5.5679
rhand -6.18039 23.4033
rfingers 7.12502
rthumb 19.6589 -5.62269
lclavicle -6.65929e-015 7.1811e-015
lhumerus 102.008 20.2238 54.8334
lradius 25.2568
lwrist -25.4357
lhand 7.63503 22.4992
lfingers 7.12502
lthumb 32.8799 49.5247
rfemur -26.4774 5.68669 26.9211
rtibia 41.7632
rfoot -6.72275 -21.2396
rtoes 19.8394
lfemur -29.1198 -3.415 -17.9563
ltibia 39.149
lfoot 2.99625 16.5857
ltoes -43.9646
711
root -20.2482 19.0893 0.105718 82.3089 -83.7529 -139.644
lowerback 11.7165 -0.478857 4.15049
upperback -1.69166 0.1117 2.14643
thorax -8.40147 -0.101306 -0.0743281
lowerneck 12.9335 0.59808 -17.4694
upperneck 29.9775 -5.23435 10.4507
head 7.94503 -4.85764 6.38827
rclavicle -1.74247e-014 3.05787e-014
rhumerus 92.0625 -25.0592 -49.7826
rradius 32.1919
rwrist -5.11525
rhand -6.39718 23.1714
rfingers 7.12502
rthumb 19.4505 -5.87577
lclavicle -1.74247e-014 3.05787e-014
lhumerus 102.723 19.8061 56.3722
lradius 24.7194
lwrist -26.7903
lhand 7.00051 21.7799
lfingers 7.12502
lthumb 32.2762 48.9301
rfemur -27.0589 6.01551 26.9798
rtibia 42.3409
rfoot -7.33474 -20.501
rtoes 24.4552
lfemur -29.2989 -3.25207 -17.9011
ltibia 38.8721
lfoot 2.76433 17.0572
ltoes -39.9954
712
root -20.1226 18.9664 0.110689 83.2667 -84.2124 -140.23
lowerback 11.7938 -0.520601 3.77331
upperback -1.54884 -0.0136272 1.93907
thorax -8.29312 -0.145294 -0.0612167
lowerneck 12.1767 0.595664 -17.7976
upperneck 30.0872 -5.11418 10.5991
head 8.09539 -4.78594 6.49874
rclavicle 2.21396e-014 -3.04141e-014
rhumerus 92.8952 -24.5377 -51.3634
rradius 31.9882
rwrist -3.95691
rhand -6.3435 23.3323
rfingers 7.12502
rthumb 19.5021 -5.70961
lclavicle 2.21396e-014 -3.04141e-014
lhumerus 103.132 19.399 57.4563
lradius 24.7923
lwrist -27.8363
lhand 6.48701 21.5932
lfingers 7.12502
lthumb 31.7873 48.8415
rfemur -27.7972 6.39954 26.387
rtibia 43.0983
rfoot -8.34801 -19.5763
rtoes 29.4469
lfemur -29.4138 -2.95285 -18.5474
ltibia 38.3931
lfoot 3.32584 16.1659
ltoes -31.3017
713
root -19.9931 18.839 0.117187 83.6277 -85.7197 -139.856
lowerback 11.4616 -0.515144 2.35854
upperback -1.43671 -0.257761 1.43756
thorax -7.97893 -0.203165 0.241954
lowerneck 11.0941 0.454401 -17.4745
upperneck 30.4838 -4.98277 10.2096
head 8.38036 -4.67618 6.29969
rclavicle 3.77691e-015 6.11263e-015
rhumerus 93.895 -23.9229 -53.123
rradius 31.7736
rwrist -2.73899
rhand -6.63904 23.6263
rfingers 7.12502
rthumb 19.218 -5.44417
lclavicle 3.77691e-015 6.11263e-015
lhumerus 103.38 19.2642 58.1962
lradius 24.9843
lwrist -28.5774
lhand 5.74027 21.4084
lfingers 7.12502
lthumb 31.0758 48.7954
rfemur -29.0057 6.8435 24.5119
rtibia 43.8414
rfoot -9.50902 -18.3836
rtoes 34.087
lfemur -29.812 -2.95557 -20.274
ltibia 37.913
lfoot 9.19612 12.4407
ltoes -45.7163
714
root -19.8475 18.7116 0.122124 90.4852 -87.3462 -145.626
lowerback 11.0091 -0.295847 0.915162
upperback -1.56291 -0.212299 0.819429
thorax -7.84816 -0.126734 0.388923
lowerneck 11.1676 0.193755 -15.7474
upperneck 29.7419 -4.87801 9.09189
head 8.0259 -4.44553 5.57867
rclavicle 2.88238e-015 -1.86361e-014
rhumerus 94.3006 -23.4793 -54.5012
rradius 31.58
rwrist -1.92382
rhand -7.13901 24.1407
rfingers 7.12502
rthumb 18.7371 -4.97691
lclavicle 2.88238e-015 -1.86361e-014
lhumerus 103.728 18.4477 59.3285
lradius 25.1169
lwrist -29.7645
lhand 4.73675 21.1387
lfingers 7.12502
lthumb 30.1189 48.7044
rfemur -30.683 7.49246 22.5562
rtibia 44.6255
rfoot -9.45864 -17.7711
rtoes 37.5023
lfemur -30.582 -2.59416 -22.0629
ltibia 37.3916
lfoot 14.485 2.35198
ltoes -57.8314
